<svg width="41" height="40" viewBox="0 0 41 40" fill="none" xmlns="http://www.w3.org/2000/svg">
<path d="M5.90976 35.6634L2.76788 0.422485H37.2929L34.1479 35.6581L20.0094 39.5778L5.90976 35.6634Z" fill="#1572B6"/>
<path d="M20.0307 36.5818L31.4554 33.4143L34.1432 3.30371H20.0307V36.5818Z" fill="#33A9DC"/>
<path d="M20.0307 16.0715H25.7501L26.1451 11.6456H20.0307V7.32336H30.8689L30.7651 8.48305L29.7026 20.3937H20.0307V16.0715Z" fill="white"/>
<path d="M20.0563 27.2965L20.0373 27.3022L15.2238 26.0025L14.916 22.5553H10.5779L11.1832 29.3419L20.0366 31.799L20.0563 31.7934V27.2965Z" fill="#EBEBEB"/>
<path d="M25.3826 20.2109L24.8619 25.9991L20.0413 27.3003V31.7972L28.9019 29.3416L28.9669 28.6113L29.7188 20.2109H25.3826Z" fill="white"/>
<path d="M20.0454 7.32336V11.6456H9.60538L9.51882 10.6743L9.32194 8.48305L9.21851 7.32336H20.0454ZM20.0307 16.0721V20.3943H15.2779L15.1913 19.4231L14.9941 17.2318L14.891 16.0721H20.0307Z" fill="#EBEBEB"/>
</svg>
