<svg xmlns="http://www.w3.org/2000/svg" viewBox="0 0 25 25" fill="none">
<path d="M12.5 0.595245C5.92498 0.595245 0.595215 5.92501 0.595215 12.5C0.595215 19.075 5.92498 24.4048 12.5 24.4048C19.075 24.4048 24.4047 19.075 24.4047 12.5C24.4047 5.92501 19.075 0.595245 12.5 0.595245ZM12.5 2.32025C15.0934 2.32025 17.4607 3.29048 19.2583 4.88691C17.9375 6.62917 15.9309 7.78929 13.9202 8.57441C12.782 6.5014 11.5063 4.50687 10.1018 2.60417C10.8873 2.41483 11.6925 2.31952 12.5006 2.32025H12.5ZM8.16902 3.28453C9.49641 5.27025 10.7821 7.11132 11.9565 9.19524C8.98629 9.96489 5.62974 10.4268 2.52914 10.4345C3.18271 7.2631 5.31307 4.62977 8.16902 3.28513V3.28453ZM20.3875 6.06429C21.8585 7.86189 22.6677 10.11 22.6797 12.4327C20.325 11.9685 17.9833 11.847 15.5988 12.0875C15.3309 11.4191 15.0059 10.7839 14.6946 10.0994C16.75 9.27024 18.9476 7.8512 20.3875 6.0637V6.06429ZM12.7833 10.7702C13.0381 11.3119 13.3333 11.8869 13.6107 12.4744C10.2952 13.9363 6.76843 15.8899 4.93807 19.3149C3.18093 17.3704 2.2445 14.8213 2.32498 12.2018C5.87557 12.1851 9.36069 11.7411 12.7833 10.7702ZM18.1631 13.5458C19.6445 13.5462 21.1198 13.7362 22.553 14.1113C22.332 15.49 21.8297 16.8085 21.0774 17.9848C20.325 19.1611 19.3387 20.17 18.1797 20.9488C17.6333 18.4637 17.1125 16.0857 16.1916 13.6881C16.8443 13.593 17.5029 13.5453 18.1625 13.5452L18.1631 13.5458ZM22.6059 13.7304C22.5988 13.7887 22.5922 13.8458 22.5839 13.903C22.5922 13.8452 22.5994 13.7881 22.6059 13.7304ZM14.3083 14.153C15.2464 16.5774 15.9827 19.2619 16.4768 21.8744C15.2191 22.408 13.8667 22.6822 12.5006 22.6804C10.2374 22.6836 8.03823 21.9292 6.25355 20.5375C8.097 17.547 10.9524 15.2839 14.3077 14.1536L14.3083 14.153Z" fill="#DEDEDD"/>
</svg>