<svg width="41" height="40" viewBox="0 0 41 40" fill="none" xmlns="http://www.w3.org/2000/svg">
<g clip-path="url(#clip0_402_116)">
<g clip-path="url(#clip1_402_116)">
<path d="M39.6148 30.7625C38.1898 31.125 37.3085 30.7781 36.5179 29.5906C34.7429 26.9312 32.7835 24.3937 30.8929 21.8093C30.6491 21.475 30.396 21.1468 30.0804 20.7312C27.8429 23.75 25.6085 26.625 23.5116 29.6156C22.7616 30.6843 21.9741 31.15 20.5741 30.7718L28.9866 19.4812L21.1554 9.28433C22.5023 9.02183 23.4335 9.15621 24.2585 10.3625C26.0804 13.025 28.0898 15.5593 30.0929 18.2406C32.1085 15.5687 34.0929 13.0312 35.9679 10.3937C36.721 9.32496 37.5304 8.91871 38.8835 9.31246C37.8585 10.6718 36.8554 12.0093 35.846 13.3375C34.4835 15.1281 33.146 16.9406 31.7335 18.6937C31.2304 19.3187 31.3116 19.725 31.7616 20.3156C34.3741 23.75 36.9554 27.2187 39.6148 30.7625ZM0.446021 19.2937C0.671021 18.1656 0.821021 17.0156 1.13352 15.9093C3.00852 9.21246 10.696 6.42808 15.9773 10.5781C19.071 13.0125 19.8398 16.4437 19.6866 20.3125H2.24915C1.98665 27.2531 6.98352 31.4437 13.3523 29.3062C15.5866 28.5562 16.9023 26.8062 17.5616 24.6187C17.896 23.5218 18.4491 23.35 19.4804 23.6625C18.9523 26.4 17.7554 28.6875 15.2554 30.1187C11.5054 32.2625 6.15227 31.5687 3.33665 28.5906C1.67415 26.8406 0.967896 24.6625 0.655396 22.3093C0.608521 21.9343 0.511646 21.5656 0.436646 21.1937C0.442896 20.5604 0.446021 19.927 0.446021 19.2937ZM2.2804 18.8281H18.0398C17.9366 13.8093 14.8116 10.2437 10.5398 10.2125C5.85227 10.175 2.48352 13.6562 2.2804 18.8281Z" fill="#EBEBEB"/>
</g>
</g>
<defs>
<clipPath id="clip0_402_116">
<rect width="40" height="40" fill="white" transform="translate(0.0303955)"/>
</clipPath>
<clipPath id="clip1_402_116">
<rect width="40" height="40" fill="white" transform="translate(0.0303955)"/>
</clipPath>
</defs>
</svg>
