<svg width="41" height="40" viewBox="0 0 41 40" fill="none" xmlns="http://www.w3.org/2000/svg">
<g clip-path="url(#clip0_402_147)">
<path d="M0.0303955 20C0.0303955 8.95433 8.98473 0 20.0304 0C31.0761 0 40.0304 8.95433 40.0304 20C40.0304 31.0457 31.0761 40 20.0304 40C8.98473 40 0.0303955 31.0457 0.0303955 20Z" fill="#1D1D1D"/>
<path d="M16.0304 31.9999C18.2396 31.9999 20.0304 30.209 20.0304 27.9999V23.9999H16.0304C13.8212 23.9999 12.0304 25.7908 12.0304 27.9999C12.0304 30.209 13.8212 31.9999 16.0304 31.9999Z" fill="#0ACF83"/>
<path d="M12.0304 20C12.0304 17.7908 13.8212 16 16.0304 16H20.0304V24H16.0304C13.8212 24 12.0304 22.2091 12.0304 20Z" fill="#A259FF"/>
<path d="M12.0304 12C12.0304 9.79085 13.8212 8 16.0304 8H20.0304V16H16.0304C13.8212 16 12.0304 14.2091 12.0304 12Z" fill="#F24E1E"/>
<path d="M20.0304 8H24.0304C26.2396 8 28.0304 9.79085 28.0304 12C28.0304 14.2091 26.2396 16 24.0304 16H20.0304V8Z" fill="#FF7262"/>
<path d="M28.0304 20C28.0304 22.2091 26.2396 24 24.0304 24C21.8212 24 20.0304 22.2091 20.0304 20C20.0304 17.7908 21.8212 16 24.0304 16C26.2396 16 28.0304 17.7908 28.0304 20Z" fill="#1ABCFE"/>
</g>
<defs>
<clipPath id="clip0_402_147">
<rect width="40" height="40" fill="white" transform="translate(0.0303955)"/>
</clipPath>
</defs>
</svg>
