<svg width="41" height="40" viewBox="0 0 41 40" fill="none" xmlns="http://www.w3.org/2000/svg">
<g clip-path="url(#clip0_402_134)">
<path d="M20.0303 0.493286C15.2813 0.493483 10.6873 2.1835 7.07033 5.26095C3.45336 8.33839 1.04944 12.6024 0.288715 17.2901C-0.472016 21.9778 0.460083 26.7832 2.91823 30.8466C5.37637 34.9099 9.20016 37.966 13.7054 39.468C14.7054 39.643 15.0804 39.0431 15.0804 38.518C15.0804 38.043 15.0554 36.468 15.0554 34.793C10.0304 35.718 8.73039 33.5681 8.33039 32.4431C7.88655 31.349 7.18295 30.3794 6.28041 29.6181C5.58041 29.2431 4.58042 28.3181 6.25539 28.2931C6.89496 28.3625 7.50837 28.5851 8.04366 28.9419C8.57894 29.2988 9.02032 29.7794 9.33038 30.3431C9.60392 30.8345 9.97174 31.267 10.4128 31.616C10.8538 31.965 11.3593 32.2236 11.9004 32.3769C12.4415 32.5301 13.0076 32.5751 13.5661 32.5093C14.1246 32.4434 14.6647 32.268 15.1553 31.993C15.2419 30.9763 15.695 30.0257 16.4303 29.3181C11.9804 28.8181 7.3304 27.0931 7.3304 19.4432C7.30229 17.4555 8.03576 15.5324 9.38038 14.0683C8.76895 12.3407 8.84049 10.4448 9.58038 8.76829C9.58038 8.76829 11.2553 8.24327 15.0803 10.8183C18.3529 9.91823 21.8077 9.91823 25.0803 10.8183C28.9052 8.21829 30.5802 8.76829 30.5802 8.76829C31.3202 10.4448 31.3918 12.3407 30.7802 14.0683C32.1289 15.5299 32.863 17.4547 32.8302 19.4432C32.8302 27.1181 28.1552 28.8181 23.7053 29.3181C24.1826 29.8019 24.5502 30.3827 24.7831 31.0211C25.0161 31.6596 25.1089 32.3406 25.0553 33.0181C25.0553 35.6931 25.0303 37.843 25.0303 38.5181C25.0303 39.0431 25.4053 39.6681 26.4052 39.4681C30.9025 37.9538 34.7153 34.8906 37.163 30.8252C39.6107 26.7598 40.5339 21.9568 39.7679 17.2736C39.0019 12.5905 36.5965 8.33197 32.9812 5.25827C29.3658 2.18457 24.7757 0.495756 20.0303 0.493286Z" fill="#EEEEEE"/>
</g>
<defs>
<clipPath id="clip0_402_134">
<rect width="40" height="39.9997" fill="white" transform="translate(0.0303955)"/>
</clipPath>
</defs>
</svg>
