<svg width="41" height="40" viewBox="0 0 41 40" fill="none" xmlns="http://www.w3.org/2000/svg">
  <path d="M5.57727 35.9375L2.37415 0H37.6085L34.4054 35.9375L19.9523 40" fill="#E34F26"/>
  <path d="M20.0304 36.875L31.671 33.6719L34.4054 2.89062H20.0304" fill="#EF652A"/>
  <path d="M20.0304 16.25H14.171L13.7804 11.7188H20.0304V7.34375H8.93665L10.1085 20.7031H20.0304V16.25ZM19.9523 27.7344L15.0304 26.4062L14.7179 22.8906H10.3429L10.8898 29.8438L19.9523 32.3438V27.7344Z" fill="#EBEBEB"/>
  <path d="M19.9523 16.25V20.7031H25.421L24.8741 26.4062L19.9523 27.7344V32.3438L29.0148 29.8438L30.2648 16.25H19.9523ZM19.9523 7.34375V11.7188H30.6554L31.046 7.34375H19.9523Z" fill="white"/>
</svg>
