<svg width="41" height="40" viewBox="0 0 41 40" fill="none" xmlns="http://www.w3.org/2000/svg">
<g clip-path="url(#clip0_402_66)">
<path d="M40.0187 0H0.0421143C0.0356422 0 0.0303955 0.00524666 0.0303955 0.0117188V39.9883C0.0303955 39.9948 0.0356422 40 0.0421143 40H40.0187C40.0252 40 40.0304 39.9948 40.0304 39.9883V0.0117188C40.0304 0.00524666 40.0252 0 40.0187 0Z" fill="#F7DF1E"/>
<path d="M25.3429 28.9062C26.1241 30.2344 27.2179 31.1719 29.0148 31.1719C30.5773 31.1719 31.5929 30.3906 31.5929 29.2969C31.5929 28.0469 30.5773 27.5781 28.8585 26.7969L27.921 26.4062C25.1866 25.2344 23.3898 23.8281 23.3898 20.7812C23.3898 17.9688 25.4991 15.7812 28.8585 15.7812C31.2804 15.7812 32.9991 16.6406 34.171 18.8281L31.2804 20.7031C30.6554 19.5312 29.9523 19.0625 28.8585 19.0625C27.7648 19.0625 27.0616 19.7656 27.0616 20.7031C27.0616 21.7969 27.7648 22.2656 29.4054 22.9688L30.3429 23.3594C33.546 24.7656 35.3429 26.0938 35.3429 29.2969C35.3429 32.6562 32.6866 34.5312 29.0929 34.5312C25.5773 34.5312 23.3116 32.8906 22.2179 30.7031L25.3429 28.9062ZM12.0616 29.2188C12.6866 30.2344 13.1554 31.1719 14.4835 31.1719C15.7335 31.1719 16.5148 30.7031 16.5148 28.8281V15.8594H20.2648V28.6719C20.2648 32.5781 17.9991 34.2969 14.6398 34.2969C11.5929 34.2969 9.87415 32.7344 9.01477 30.8594L12.0616 29.2188Z" fill="black"/>
</g>
<defs>
<clipPath id="clip0_402_66">
<rect x="0.0303955" width="40" height="40" rx="5" fill="white"/>
</clipPath>
</defs>
</svg>
