<svg xmlns="http://www.w3.org/2000/svg" viewBox="0 0 25 25" fill="none">
<path d="M5.67585 25V8.13249H0.317023V25H5.67585ZM2.99713 5.82814C4.86584 5.82814 6.02903 4.53291 6.02903 2.91431C5.99421 1.25921 4.86591 -6.10352e-05 3.03259 -6.10352e-05C1.19955 -6.10352e-05 0.000854492 1.25924 0.000854492 2.91431C0.000854492 4.53299 1.16375 5.82814 2.96214 5.82814H2.99696H2.99713ZM8.64194 25H14.0008V15.5803C14.0008 15.0762 14.0356 14.5726 14.1771 14.2122C14.5645 13.205 15.4462 12.1618 16.9266 12.1618C18.8657 12.1618 19.6415 13.7086 19.6415 15.9761V24.9998H24.9999V15.3282C24.9999 10.1472 22.3562 7.73649 18.8304 7.73649C15.9395 7.73649 14.6703 9.42704 13.9651 10.5785H14.0009V8.13214H8.64206C8.71238 9.71489 8.64206 24.9996 8.64206 24.9996L8.64194 25Z" fill="#DEDEDD"/>
</svg>