<svg width="41" height="40" viewBox="0 0 41 40" fill="none" xmlns="http://www.w3.org/2000/svg">
<path fill-rule="evenodd" clip-rule="evenodd" d="M27.5423 13.3788C28.0438 14.8297 28.4051 16.311 28.5238 17.8463C28.6713 19.751 28.6038 21.6422 28.2023 23.5157C28.1913 23.5672 28.1682 23.6157 28.151 23.6657C28.0251 23.666 27.8966 23.6503 27.7735 23.6694C26.7332 23.8328 25.6938 24.0022 24.6545 24.1707C23.5801 24.3447 22.5041 24.5119 21.4316 24.6978C21.0516 24.7635 20.5813 24.685 20.4279 25.2107C20.4235 25.225 20.3798 25.2275 20.3545 25.2357L20.4063 22.0947C20.3885 19.5685 20.371 17.0422 20.3535 14.516L20.8541 14.43C21.6729 14.296 22.4916 14.16 23.311 14.0297C24.2888 13.8744 25.2676 13.7235 26.246 13.5719C26.6776 13.5047 27.1098 13.4432 27.5423 13.3788Z" fill="#439934"/>
<path fill-rule="evenodd" clip-rule="evenodd" d="M19.3207 34.3919C18.7926 33.9378 18.246 33.5038 17.7398 33.0263C15.0157 30.4569 13.0232 27.4328 12.0419 23.7869C11.7716 22.7834 11.5913 21.7638 11.5335 20.7269C11.4929 20.0013 11.4341 19.2691 11.4854 18.5472C11.6219 16.6272 11.8994 14.7256 12.4626 12.8763L12.4935 12.8331C12.5482 12.9059 12.6269 12.9703 12.6548 13.0525C13.2044 14.6713 13.7501 16.2913 14.2929 17.9122C15.9985 23.0059 17.7019 28.1009 19.4104 33.1934C19.4438 33.2928 19.5304 33.3744 19.5926 33.4641L19.3207 34.3919Z" fill="#45A538"/>
<path fill-rule="evenodd" clip-rule="evenodd" d="M27.5423 13.3788C27.1098 13.4432 26.6773 13.5047 26.2457 13.5713C25.2673 13.7229 24.2885 13.8738 23.3107 14.0291C22.4913 14.1594 21.6726 14.2954 20.8538 14.4294L20.3532 14.5154L20.3495 14.1888C20.3329 13.9204 20.3045 13.6522 20.3013 13.3838C20.2798 11.6719 20.2663 9.96004 20.2451 8.24817C20.232 7.17661 20.2123 6.10536 20.1904 5.03411C20.177 4.36848 20.1626 3.70254 20.1326 3.03786C20.1163 2.68067 20.0588 2.32536 20.0354 1.96817C20.0223 1.76286 20.0404 1.55598 20.0445 1.34973C20.2998 1.84442 20.5495 2.34286 20.812 2.83379C21.2266 3.61004 21.8873 4.18192 22.482 4.80598C24.8329 7.27223 26.502 10.1397 27.5423 13.3788Z" fill="#46A037"/>
<path fill-rule="evenodd" clip-rule="evenodd" d="M20.3542 25.2353C20.3795 25.2272 20.4235 25.2247 20.4276 25.2103C20.581 24.6847 21.0513 24.7631 21.4313 24.6975C22.5038 24.5119 23.5798 24.3444 24.6542 24.1703C25.6935 24.0019 26.7329 23.8325 27.7732 23.669C27.8963 23.6497 28.0248 23.6656 28.1507 23.6653C27.9563 24.359 27.8032 25.0678 27.5567 25.7425C27.2767 26.5078 26.9379 27.2547 26.5782 27.9869C26.0407 29.0815 25.371 30.1025 24.5929 31.0378C23.9932 31.759 23.3248 32.4256 22.6548 33.084C22.2845 33.4481 21.8479 33.7447 21.4417 34.0719L21.3363 34L20.957 33.6756L20.5645 32.8153C20.2942 31.8081 20.1523 30.7828 20.1288 29.7409L20.136 29.5656L20.1895 28.8075C20.2073 28.5487 20.231 28.2903 20.242 28.0309C20.2823 27.099 20.3173 26.1672 20.3542 25.2353Z" fill="#409433"/>
<path fill-rule="evenodd" clip-rule="evenodd" d="M20.3541 25.2353C20.3173 26.1671 20.2823 27.099 20.2426 28.0312C20.2316 28.2906 20.2079 28.549 20.1901 28.8078L19.951 28.8981C19.4201 27.3349 18.8888 25.7884 18.3691 24.2378C17.5098 21.6724 16.6607 19.1031 15.8026 16.5371C15.1098 14.4659 14.4113 12.3968 13.7088 10.3287C13.676 10.2318 13.5816 10.1562 13.516 10.0706L15.046 7.25745C15.0985 7.3487 15.1679 7.43401 15.201 7.53213C15.9088 9.62682 16.6154 11.7218 17.316 13.819C18.2273 16.5471 19.1329 19.2774 20.0435 22.0059C20.0798 22.1149 20.1398 22.2156 20.197 22.3378L20.4063 22.094C20.3888 23.1412 20.3713 24.1881 20.3541 25.2353Z" fill="#4FAA41"/>
<path fill-rule="evenodd" clip-rule="evenodd" d="M13.5163 10.0709C13.582 10.1565 13.676 10.2322 13.7091 10.329C14.4116 12.3972 15.1101 14.4662 15.8029 16.5375C16.661 19.1034 17.5101 21.6728 18.3695 24.2381C18.8888 25.7884 19.4201 27.3353 19.9513 28.8984L20.1904 28.8081L20.137 29.5662L20.0885 29.7409C20.0054 30.5709 19.9354 31.4028 19.8341 32.2309C19.7832 32.6459 19.6751 33.0534 19.5929 33.4644C19.531 33.3747 19.4441 33.2931 19.4107 33.1937C17.7023 28.1009 15.9988 23.0062 14.2932 17.9125C13.7504 16.2915 13.2048 14.6715 12.6551 13.0528C12.6273 12.9706 12.5488 12.9062 12.4938 12.8334C12.8345 11.9125 13.1754 10.9915 13.5163 10.0709Z" fill="#4AA73C"/>
<path fill-rule="evenodd" clip-rule="evenodd" d="M20.406 22.0944L20.1967 22.3382C20.1395 22.216 20.0795 22.115 20.0432 22.0063C19.1329 19.2779 18.227 16.5475 17.3157 13.8194C16.6151 11.7222 15.9085 9.62724 15.2007 7.53255C15.1679 7.43442 15.0985 7.3488 15.0457 7.25786L16.9379 4.7688C16.9976 4.84849 17.0826 4.91942 17.1135 5.00911C17.6388 6.54692 18.1595 8.08661 18.677 9.62724C19.1604 11.066 19.6367 12.5069 20.1257 13.9438C20.1585 14.04 20.2726 14.1082 20.3488 14.1894L20.3526 14.516C20.3707 17.0416 20.3885 19.5682 20.406 22.0944Z" fill="#57AE47"/>
<path fill-rule="evenodd" clip-rule="evenodd" d="M20.3494 14.1888C20.2732 14.1075 20.1591 14.0394 20.1263 13.9432C19.6373 12.5063 19.161 11.0653 18.6776 9.6266C18.1601 8.08597 17.6394 6.5466 17.1141 5.00847C17.0832 4.91878 16.9982 4.84785 16.9385 4.76816C17.5538 4.16566 18.1501 3.5416 18.7901 2.96691C19.3591 2.45628 19.8166 1.90878 19.8376 1.10191C19.8385 1.06847 19.856 1.03503 19.8829 0.941284L20.0451 1.34941C20.041 1.55597 20.0226 1.76253 20.036 1.96785C20.0594 2.32503 20.1169 2.68035 20.1332 3.03753C20.1632 3.70222 20.1776 4.36816 20.191 5.03378C20.2126 6.10503 20.2323 7.17628 20.2457 8.24785C20.2666 9.95972 20.2804 11.6716 20.3019 13.3835C20.3044 13.6525 20.3326 13.9203 20.3494 14.1888Z" fill="#60B24F"/>
<path fill-rule="evenodd" clip-rule="evenodd" d="M19.5923 33.4641C19.6745 33.0532 19.7826 32.6454 19.8335 32.2307C19.9351 31.4029 20.0048 30.5707 20.0879 29.7407L20.1085 29.7375L20.1292 29.741C20.1526 30.7829 20.2945 31.8082 20.5648 32.8154C20.5098 32.8879 20.432 32.9525 20.4029 33.0344C20.1757 33.675 19.9617 34.3207 19.7332 34.9613C19.702 35.0488 19.6151 35.1169 19.5538 35.1938L19.3204 34.3919L19.5923 33.4641Z" fill="#A9AA88"/>
<path fill-rule="evenodd" clip-rule="evenodd" d="M19.5541 35.1941C19.6154 35.1172 19.7026 35.0491 19.7335 34.9616C19.9619 34.321 20.1763 33.6757 20.4032 33.0347C20.4323 32.9529 20.5098 32.8882 20.5651 32.8157L20.9573 33.6763C20.8798 33.7863 20.7729 33.8854 20.7298 34.0079L19.9785 36.2138C19.9476 36.3022 19.8419 36.3647 19.7713 36.4394L19.5541 35.1941Z" fill="#B6B598"/>
<path fill-rule="evenodd" clip-rule="evenodd" d="M19.7713 36.4392C19.8423 36.3648 19.9476 36.302 19.9785 36.2135L20.7298 34.0076C20.7726 33.8854 20.8798 33.786 20.9573 33.676L21.337 34.0001C21.1535 34.1813 21.0516 34.3907 21.1129 34.6554L20.9976 35.0329C20.9451 35.0976 20.8691 35.1538 20.8432 35.2279C20.581 35.9788 20.3307 36.7338 20.0666 37.4848C20.0332 37.5801 19.9404 37.6548 19.8748 37.7385C19.8407 37.3051 19.806 36.8726 19.7713 36.4392Z" fill="#C2C1A7"/>
<path fill-rule="evenodd" clip-rule="evenodd" d="M19.8751 37.7385C19.9404 37.6544 20.0332 37.5797 20.0669 37.4847C20.331 36.7341 20.5813 35.9791 20.8435 35.2278C20.8694 35.1541 20.9451 35.0975 20.9979 35.0328L20.8388 36.7656C20.7963 36.8147 20.7348 36.8575 20.7145 36.9147C20.5348 37.4191 20.3654 37.9272 20.1851 38.4316C20.1479 38.5356 20.0766 38.6275 20.021 38.7247C19.9716 38.66 19.8832 38.5975 19.8791 38.53C19.8632 38.2672 19.8741 38.0025 19.8751 37.7385Z" fill="#CECDB7"/>
<path fill-rule="evenodd" clip-rule="evenodd" d="M20.0207 38.7248C20.0763 38.6273 20.1476 38.5354 20.1848 38.4317C20.3654 37.9276 20.5345 37.4195 20.7142 36.9148C20.7345 36.8576 20.7963 36.8151 20.8385 36.7657L20.8423 37.9032L20.4617 38.8795L20.0207 38.7248Z" fill="#DBDAC7"/>
<path fill-rule="evenodd" clip-rule="evenodd" d="M20.4616 38.8797L20.8423 37.9034L20.9207 39.0584L20.4616 38.8797Z" fill="#EBE9DC"/>
<path fill-rule="evenodd" clip-rule="evenodd" d="M21.1129 34.6556C21.0516 34.3909 21.1532 34.1812 21.337 34.0002L21.4423 34.0721L21.1129 34.6556Z" fill="#CECDB7"/>
<path fill-rule="evenodd" clip-rule="evenodd" d="M20.1291 29.7412L20.1085 29.7377L20.0879 29.7408L20.1363 29.5662L20.1291 29.7412Z" fill="#4FAA41"/>
</svg>
