<svg width="41" height="40" viewBox="0 0 41 40" fill="none" xmlns="http://www.w3.org/2000/svg">
<path d="M35.2713 9.47938L21.491 1.47782C20.622 0.982817 19.4904 0.982817 18.6145 1.47782L4.68696 9.47938C3.79008 9.99532 3.1554 10.965 3.1554 12.0022V27.9841C3.1554 29.0213 3.80665 29.9913 4.70352 30.51L8.38321 32.6C10.142 33.4663 10.7635 33.4663 11.5638 33.4663C14.1679 33.4663 15.6554 31.8916 15.6554 29.145V13.3669C15.6554 13.1441 15.5395 12.8125 15.3207 12.8125H13.5635C13.341 12.8125 12.8429 13.1441 12.8429 13.3666V29.1447C12.8429 30.3622 11.7416 31.5738 9.68352 30.5447L5.88133 28.3531C5.74883 28.2813 5.6554 28.1366 5.6554 27.9841V12.0022C5.6554 11.8516 5.82883 11.7003 5.96227 11.6231L19.8448 3.63532C19.9745 3.56188 20.1651 3.56188 20.2945 3.63532L34.0076 11.6213C34.1388 11.7003 34.0926 11.8469 34.0926 12.0022V27.9841C34.0926 28.1366 34.1498 28.285 34.0201 28.3584L20.2432 36.3509C20.1251 36.4219 19.9785 36.4219 19.8491 36.3509L16.3157 34.2419C16.2091 34.18 16.0826 34.1578 15.9804 34.215C14.9973 34.7722 14.816 34.8463 13.8938 35.1659C13.667 35.245 13.3323 35.3822 14.022 35.7688L18.6463 38.5044C19.0891 38.7606 19.5923 38.8938 20.0985 38.8938C20.6116 38.8938 21.1141 38.7606 21.557 38.5044L35.271 30.51C36.1679 29.9875 36.5929 29.0213 36.5929 27.9841V12.0022C36.5929 10.965 36.1679 9.99782 35.2713 9.47938ZM24.3773 25.4516C20.7129 25.4516 19.9057 24.4406 19.6366 22.6184C19.6054 22.4222 19.4388 22.1875 19.2391 22.1875H17.4482C17.2266 22.1875 17.0485 22.4563 17.0485 22.6769C17.0485 25.01 18.317 27.8369 24.3776 27.8369C28.7648 27.8369 31.2801 26.1322 31.2801 23.1153C31.2801 20.1241 29.2591 19.3391 25.0045 18.7759C20.7038 18.2075 20.267 17.9203 20.267 16.9128C20.267 16.0822 20.637 14.9744 23.8213 14.9744C26.6666 14.9744 27.7154 15.585 28.147 17.5028C28.1838 17.6831 28.3485 17.8125 28.5345 17.8125H30.3326C30.4432 17.8125 30.5488 17.7678 30.6263 17.6888C30.7013 17.6038 30.741 17.4972 30.731 17.3828C30.4526 14.0803 28.2585 12.5413 23.821 12.5413C19.8738 12.5413 17.5191 14.2081 17.5191 17.0022C17.5191 20.0328 19.862 20.8703 23.651 21.245C28.1838 21.6894 28.5363 22.3519 28.5363 23.2434C28.5363 24.7919 27.2932 25.4516 24.3773 25.4516Z" fill="#83CD29"/>
</svg>
