<svg width="40" height="36" viewBox="0 0 40 36" fill="none" xmlns="http://www.w3.org/2000/svg">
<path d="M20.0304 21.5625C21.9979 21.5625 23.5929 19.9675 23.5929 18C23.5929 16.0325 21.9979 14.4375 20.0304 14.4375C18.0629 14.4375 16.4679 16.0325 16.4679 18C16.4679 19.9675 18.0629 21.5625 20.0304 21.5625Z" fill="#61DAFB"/>
<path d="M33.5616 12.125C32.8741 11.875 32.1554 11.625 31.4054 11.4063C31.5929 10.6563 31.7491 9.90625 31.8741 9.1875C32.5304 5.0625 31.8116 2.15625 29.8116 1.03125C29.2179 0.6875 28.5616 0.53125 27.8116 0.53125C25.6241 0.53125 22.8429 2.15625 20.0304 4.875C17.2179 2.15625 14.4366 0.53125 12.2491 0.53125C11.4991 0.53125 10.8429 0.6875 10.2491 1.03125C8.24913 2.1875 7.53038 5.09375 8.18663 9.1875C8.31163 9.90625 8.46788 10.6563 8.65538 11.4063C7.90538 11.625 7.18663 11.8438 6.49913 12.125C2.59288 13.625 0.46788 15.6875 0.46788 18C0.46788 20.3125 2.62413 22.375 6.49913 23.875C7.18663 24.125 7.90538 24.375 8.65538 24.5938C8.46788 25.3438 8.31163 26.0938 8.18663 26.8125C7.53038 30.9375 8.24913 33.8438 10.2491 34.9688C10.8429 35.3125 11.4991 35.4688 12.2491 35.4688C14.4679 35.4688 17.2491 33.8438 20.0304 31.125C22.8429 33.8438 25.6241 35.4688 27.8116 35.4688C28.5616 35.4688 29.2179 35.3125 29.8116 34.9688C31.8116 33.8125 32.5304 30.9062 31.8741 26.8125C31.7491 26.0938 31.5929 25.3438 31.4054 24.5938C32.1554 24.375 32.8741 24.1563 33.5616 23.875C37.4679 22.375 39.5929 20.3125 39.5929 18C39.5929 15.6875 37.4679 13.625 33.5616 12.125ZM28.9366 2.59375C30.2179 3.34375 30.6554 5.65625 30.1241 8.9375C30.0304 9.59375 29.8741 10.2812 29.6866 11C28.0616 10.625 26.3429 10.375 24.5304 10.2187C23.4679 8.71875 22.3741 7.375 21.2804 6.15625C23.5929 3.875 25.9366 2.3125 27.8429 2.3125C28.2491 2.3125 28.6241 2.40625 28.9366 2.59375ZM25.4366 21.125C24.8741 22.125 24.2179 23.125 23.5304 24.125C22.3741 24.2188 21.2179 24.25 20.0304 24.25C18.8116 24.25 17.6554 24.2188 16.5304 24.125C15.8429 23.125 15.2179 22.125 14.6554 21.125C14.0616 20.0938 13.4991 19.0312 12.9991 18C13.4991 16.9688 14.0616 15.9062 14.6554 14.875C15.2179 13.875 15.8741 12.875 16.5616 11.875C17.7179 11.7813 18.8741 11.75 20.0616 11.75C21.2804 11.75 22.4366 11.7813 23.5616 11.875C24.2491 12.875 24.8741 13.875 25.4366 14.875C26.0304 15.9062 26.5929 16.9688 27.0929 18C26.5616 19.0312 26.0304 20.0625 25.4366 21.125ZM28.0304 20.0938C28.4991 21.1875 28.8741 22.25 29.2179 23.3125C28.1554 23.5625 27.0304 23.75 25.8429 23.9062C26.2179 23.3125 26.6241 22.6875 26.9679 22.0312C27.3429 21.375 27.6866 20.7188 28.0304 20.0938ZM20.0304 28.5625C19.2804 27.75 18.5616 26.875 17.8741 25.9688C18.5929 26 19.3116 26.0312 20.0304 26.0312C20.7491 26.0312 21.4679 26 22.1866 25.9688C21.4991 26.875 20.7804 27.75 20.0304 28.5625ZM14.2179 23.875C13.0304 23.7188 11.9054 23.5313 10.8429 23.2812C11.1866 22.25 11.5616 21.1562 12.0304 20.0625C12.3741 20.6875 12.7179 21.3438 13.0929 21.9688C13.4679 22.6562 13.8429 23.25 14.2179 23.875ZM12.0304 15.9062C11.5616 14.8125 11.1866 13.75 10.8429 12.6875C11.9054 12.4375 13.0304 12.25 14.2179 12.0938C13.8429 12.6875 13.4366 13.3125 13.0929 13.9688C12.7179 14.625 12.3741 15.2812 12.0304 15.9062ZM20.0304 7.4375C20.7804 8.25 21.4991 9.125 22.1866 10.0312C21.4679 10 20.7491 9.96875 20.0304 9.96875C19.3116 9.96875 18.5929 10 17.8741 10.0312C18.5616 9.125 19.2804 8.25 20.0304 7.4375ZM26.9679 14L25.8429 12.125C27.0304 12.2812 28.1554 12.4688 29.2179 12.7188C28.8741 13.75 28.4991 14.8438 28.0304 15.9375C27.6866 15.2813 27.3429 14.625 26.9679 14ZM9.93663 8.9375C9.40538 5.65625 9.84288 3.34375 11.1241 2.59375C11.4366 2.40625 11.8116 2.3125 12.2179 2.3125C14.0929 2.3125 16.4366 3.84375 18.7804 6.15625C17.6866 7.34375 16.5929 8.71875 15.5304 10.2187C13.7179 10.375 11.9991 10.6562 10.3741 11C10.1866 10.2812 10.0616 9.59375 9.93663 8.9375ZM2.21788 18C2.21788 16.5312 3.99913 14.9688 7.12413 13.8125C7.74913 13.5625 8.43663 13.3438 9.12413 13.1562C9.62413 14.7188 10.2491 16.375 10.9991 18.0312C10.2491 19.6875 9.59288 21.3125 9.12413 22.875C4.81163 21.625 2.21788 19.75 2.21788 18ZM11.1241 33.4062C9.84288 32.6562 9.40538 30.3438 9.93663 27.0625C10.0304 26.4062 10.1866 25.7188 10.3741 25C11.9991 25.375 13.7179 25.625 15.5304 25.7812C16.5929 27.2813 17.6866 28.625 18.7804 29.8438C16.4679 32.125 14.1241 33.6875 12.2179 33.6875C11.8116 33.6875 11.4366 33.5938 11.1241 33.4062ZM30.1241 27.0625C30.6554 30.3438 30.2179 32.6562 28.9366 33.4062C28.6241 33.5938 28.2491 33.6875 27.8429 33.6875C25.9679 33.6875 23.6241 32.1563 21.2804 29.8438C22.3741 28.6563 23.4679 27.2813 24.5304 25.7812C26.3429 25.625 28.0616 25.3438 29.6866 25C29.8741 25.7188 29.9991 26.4062 30.1241 27.0625ZM32.9366 22.1875C32.3116 22.4375 31.6241 22.6562 30.9366 22.8438C30.4366 21.2812 29.8116 19.625 29.0616 17.9688C29.8116 16.3125 30.4679 14.6875 30.9366 13.125C35.2491 14.375 37.8429 16.25 37.8429 18C37.8429 19.4688 36.0304 21.0312 32.9366 22.1875Z" fill="#61DAFB"/>
</svg>
