<svg width="41" height="40" viewBox="0 0 41 40" fill="none" xmlns="http://www.w3.org/2000/svg">
<g clip-path="url(#clip0_402_87)">
<path d="M40.0187 0H0.0421143C0.0356422 0 0.0303955 0.00524666 0.0303955 0.0117188V39.9883C0.0303955 39.9948 0.0356422 40 0.0421143 40H40.0187C40.0252 40 40.0304 39.9948 40.0304 39.9883V0.0117188C40.0304 0.00524666 40.0252 0 40.0187 0Z" fill="#CC6699"/>
<path d="M20.1866 6.87492C12.6866 9.45305 7.84281 14.6874 8.31156 17.8124C8.78031 20.9374 13.4678 23.4374 15.5772 25.078C12.8428 26.4843 9.40531 28.5937 9.48343 31.328C9.63968 35.078 13.7022 33.9062 15.4209 32.8124C17.1397 31.7187 18.8584 28.6718 17.7647 25.4687C20.1866 24.8437 22.2959 25.6249 22.9209 26.0937C25.3428 27.8124 24.0928 29.7655 23.2334 30.078C22.3741 30.3905 22.9209 30.5468 23.4678 30.3905C24.0147 30.2343 25.1866 29.453 25.1866 28.1249C25.1866 24.7655 21.5928 23.203 17.1397 24.3749C14.5616 21.6405 11.0459 20.3905 11.2022 17.4218C11.2803 16.328 11.6709 13.5155 18.6241 9.99992C25.5772 6.4843 30.4991 7.89055 29.8741 11.0937C28.9366 15.9374 20.4991 19.2187 17.5303 16.4062C17.3741 16.0937 16.8272 15.8593 17.1397 16.7187C18.7022 20.6249 31.3584 18.828 31.9053 10.5468C32.0616 6.1718 25.7334 4.99992 20.1866 6.87492ZM13.4678 31.8749C11.5147 32.4999 11.5928 31.2499 11.6709 30.7812C11.9053 29.453 12.9991 27.8124 16.2803 26.1718C17.2178 29.1405 15.1084 31.4062 13.4678 31.8749Z" fill="white"/>
</g>
<defs>
<clipPath id="clip0_402_87">
<rect x="0.0303955" width="40" height="40" rx="5" fill="white"/>
</clipPath>
</defs>
</svg>
