<svg width="41" height="44" viewBox="0 0 41 44" fill="none" xmlns="http://www.w3.org/2000/svg">
<g clip-path="url(#clip0_402_136)">
<path d="M5.33758 31.5009L4.33118 31.0075L10.7008 24.3038L12.2016 25.8831L5.33758 31.5009ZM27.2304 37.0889L4.33118 12.9927L5.28958 12.5228L27.2304 32.2772V37.0889ZM27.2304 13.5835L18.8352 20.4538L16.424 18.2821L27.2304 6.91123V13.5835ZM36.8304 34.3091L30.4304 38.0805V5.91809L36.8304 9.68952V34.3091Z" fill="#1F9CF0"/>
<path d="M39.2544 7.45328L29.6544 1.79614C29.6112 1.771 29.5632 1.75843 29.5168 1.738C28.8816 1.364 28.0608 1.43157 27.5344 1.98471L14.064 16.1606L6.64001 9.47571C6.15041 9.03571 5.43361 8.93986 4.84321 9.229L0.985611 11.1226C0.532811 11.3441 0.214411 11.7606 0.126411 12.2493C0.0384115 12.738 0.187211 13.2377 0.531211 13.5991L8.51361 22L0.531211 30.4009C0.187211 30.7623 0.0368115 31.2636 0.126411 31.7507C0.216011 32.2379 0.534411 32.6559 0.985611 32.8774L4.84321 34.7726C5.07041 34.8841 5.31521 34.9376 5.55841 34.9376C5.92481 34.9376 6.28961 34.8134 6.58401 34.573L14.3904 28.1836L27.5344 42.0153C27.8496 42.3469 28.2768 42.515 28.704 42.515C28.9968 42.515 29.2784 42.4097 29.536 42.2526C29.5744 42.2337 29.616 42.2259 29.6528 42.2039L39.2528 36.5467C39.7344 36.2639 40.0304 35.7516 40.0304 35.2V8.8C40.0304 8.24843 39.7344 7.73614 39.2544 7.45328ZM5.33761 31.5009L4.33121 31.0074L10.7008 24.3037L12.2016 25.883L5.33761 31.5009ZM27.2304 37.0889L4.33121 12.9926L5.28961 12.5227L27.2304 32.2771V37.0889ZM27.2304 28.0123L21.216 22.5971L27.2304 17.6754V28.0123ZM27.2304 13.5834L18.8352 20.4537L16.424 18.282L27.2304 6.91114V13.5834ZM36.8304 34.309L30.4304 38.0804V5.918L36.8304 9.68943V34.309Z" fill="#0065A9"/>
</g>
<defs>
<clipPath id="clip0_402_136">
<rect width="40" height="44" fill="white" transform="translate(0.0303955)"/>
</clipPath>
</defs>
</svg>
